<svg width="65" height="118" viewBox="0 0 65 118" fill="none" xmlns="http://www.w3.org/2000/svg">
<g clip-path="url(#clip0_1_168)">
<path d="M0.00258636 41.7523C0.00258636 33.9037 5.28679 28.5196 12.9891 28.5064C14.1387 28.5038 15.2882 28.5064 16.5697 28.5064C16.5697 25.892 16.5905 23.488 16.5594 21.0839C16.5464 20.0239 16.9814 19.5742 18.0325 19.5952C19.9303 19.632 21.8306 19.6057 23.7284 19.6057C25.3543 19.6057 26.9828 19.6057 28.6527 19.6057C28.6527 16.5205 28.6527 13.6141 28.6527 10.6025C26.3381 10.4683 24.1038 10.3316 21.8695 10.2079C15.7516 9.86863 9.63375 9.50829 3.51331 9.21633C2.28611 9.15847 1.81232 8.66924 1.87186 7.44619C1.93141 6.2205 1.93918 4.98955 1.87186 3.7665C1.80196 2.49873 2.36637 2.09893 3.55214 2.0358C15.705 1.38088 27.8553 0.704908 40.003 0.00789757C41.1758 -0.0604884 41.6677 0.344567 41.647 1.5571C41.6056 4.05582 41.6367 6.55454 41.6341 9.05326C41.6341 11.2653 41.5797 11.3179 39.3454 11.2074C37.9447 11.139 36.5415 11.0601 35.0735 10.9838C35.0735 13.9113 35.0735 16.652 35.0735 19.6057C38.6308 19.6057 42.0354 19.6005 45.4373 19.6084C47.0244 19.611 47.159 19.7478 47.1668 21.3154C47.1772 23.3328 47.2005 25.3502 47.159 27.3649C47.1435 28.1987 47.3843 28.559 48.2568 28.5196C49.5487 28.4617 50.8458 28.5038 52.1403 28.5064C59.6718 28.517 64.9896 33.9352 64.9896 41.6181C64.9948 62.66 64.9922 83.7018 64.9974 104.746C65 112.558 59.6796 117.992 51.9876 117.997C39.0425 118.005 26.0948 118.005 13.1496 117.997C5.28161 117.992 0.00518036 112.626 0.00258636 104.617C-0.00258636 83.6624 0 62.7073 0.00258636 41.7523ZM39.1538 9.26894C39.2755 9.27683 39.4023 9.22422 39.6276 9.17951C39.6276 6.8465 39.6276 4.51348 39.6276 2.00424C39.1849 2.00424 38.8457 1.98846 38.5091 2.00687C27.322 2.62498 16.1374 3.26675 4.95021 3.8454C3.77739 3.9059 3.70748 4.51611 3.80069 5.36568C3.8913 6.19157 3.28547 7.30942 4.94762 7.39358C16.3523 7.98012 27.7517 8.63768 39.1538 9.26894ZM33.1214 10.9023C32.2903 10.8339 31.5809 10.7734 30.755 10.705C30.755 13.7009 30.755 16.5836 30.755 19.5321C31.1641 19.561 31.5032 19.5663 31.8346 19.611C32.834 19.7504 33.1783 19.3638 33.1473 18.309C33.0696 15.8761 33.1214 13.4431 33.1214 10.9023ZM45.2406 21.5758C44.7513 21.5495 44.3344 21.5048 43.9176 21.5048C35.8916 21.4995 27.8657 21.5284 19.8397 21.4732C18.6694 21.4653 18.3406 21.8257 18.4054 22.9619C18.4934 24.4901 18.4442 26.0288 18.4235 27.5622C18.4131 28.2197 18.641 28.5117 19.3219 28.5091C27.7802 28.4933 36.236 28.4933 44.6943 28.4854C44.8548 28.4854 45.0179 28.3986 45.2406 28.3355C45.2406 26.1024 45.2406 23.8904 45.2406 21.5758ZM5.3308 101.419C5.3308 103.137 5.48096 103.284 7.18972 103.281C23.9718 103.281 40.7512 103.279 57.5333 103.273C59.1488 103.273 59.299 103.118 59.299 101.451C59.3016 84.4909 59.3016 67.5312 59.2964 50.5714C59.2964 48.9302 59.1514 48.7908 57.497 48.7908C49.0853 48.7881 40.6735 48.7881 32.2618 48.7881C23.8941 48.7855 15.5238 48.7855 7.15606 48.7881C5.45507 48.7881 5.3308 48.9091 5.3308 50.6714C5.32562 67.5864 5.32562 84.5014 5.3308 101.419Z" fill="black"/>
</g>
<defs>
<clipPath id="clip0_1_168">
<rect width="65" height="118" fill="white" transform="matrix(-1 0 0 1 65 0)"/>
</clipPath>
</defs>
</svg>
