<svg width="50" height="101" viewBox="0 0 50 101" fill="none" xmlns="http://www.w3.org/2000/svg">
<g clip-path="url(#clip0_1_175)">
<path d="M24.9786 40.3707C32.5979 40.2845 38.4385 34.2785 38.3616 26.6093C38.2931 19.3452 32.0677 13.3477 24.705 13.4425C17.479 13.5373 11.57 19.7933 11.6641 27.2384C11.7667 34.4163 17.8724 40.4482 24.9786 40.3707Z" fill="black"/>
<path d="M47.503 0C40.0034 0 32.5124 0 25.0128 0V0.00861701C23.8498 0.00861701 22.6954 0.00861701 21.5324 0.00861701C15.0419 0.00861701 8.55141 0.00861701 2.05235 0.017234C0.495993 0.017234 -0.136811 0.672127 0.00856311 2.1284C0.265105 4.56702 0.521647 6.99701 0.803843 9.42701C2.11221 20.7756 3.42057 32.1242 4.72893 43.4814C5.84061 53.1325 6.9865 62.7836 8.04687 72.4432C9.01318 81.2498 10.4669 90.0133 10.0137 98.9319C9.93673 100.466 10.5524 101 12.1344 101C20.6003 101.009 29.0576 101.009 37.5235 101.009C39.6015 101.009 39.9949 100.586 40.012 98.4666C40.0376 95.2008 39.8153 91.9004 40.1488 88.6691C41.1835 78.4665 42.432 68.2812 43.595 58.0873C44.8093 47.428 46.0236 36.7774 47.2379 26.1182C48.1273 18.3198 49.0423 10.53 49.9145 2.72298C50.1881 0.448085 49.7349 0 47.503 0ZM36.9164 87.4713C28.9807 87.4713 21.1134 87.4713 13.1179 87.4713C9.91108 59.4919 6.71286 31.5124 3.49753 3.42957C17.9323 3.42957 32.1704 3.42957 46.5367 3.42957C43.3214 31.4779 40.1231 59.4488 36.9164 87.4713Z" fill="black"/>
</g>
<defs>
<clipPath id="clip0_1_175">
<rect width="50" height="101" fill="white"/>
</clipPath>
</defs>
</svg>
