<svg width="24" height="24" viewBox="0 0 24 24" fill="none" xmlns="http://www.w3.org/2000/svg">
<g clip-path="url(#clip0_1_114)">
<path d="M21.44 0H1.65C0.74 0 0 0.74 0 1.65V21.44C0 22.35 0.74 23.09 1.65 23.09H11.55V13.19H8.25V9.9H11.55V7.88C11.55 5.15 13.14 3.3 15.41 3.3H18.14V6.6H15.67C15.39 6.6 14.85 6.7 14.85 7.24V9.9H18.15L16.5 13.2H14.85V23.1H21.45C22.36 23.1 23.1 22.36 23.1 21.45V1.65C23.09 0.74 22.35 0 21.44 0Z" fill="white"/>
</g>
<defs>
<clipPath id="clip0_1_114">
<rect width="23.09" height="23.09" fill="white"/>
</clipPath>
</defs>
</svg>
