<svg width="27" height="27" viewBox="0 0 27 27" fill="none" xmlns="http://www.w3.org/2000/svg">
<g clip-path="url(#clip0_1_116)">
<path d="M20.96 7.45005C20.78 6.99005 20.57 6.66005 20.22 6.32005C19.87 5.98005 19.55 5.76005 19.09 5.58005C18.74 5.45005 18.22 5.28005 17.26 5.24005C16.22 5.19005 15.91 5.18005 13.27 5.18005C12.94 5.18005 12.65 5.18005 12.39 5.18005C10.55 5.18005 10.2 5.19005 9.28999 5.24005C8.31999 5.28005 7.79999 5.44005 7.44999 5.58005C6.98999 5.75005 6.65999 5.97005 6.31999 6.31005C5.96999 6.66005 5.75999 6.99005 5.57999 7.45005C5.43999 7.80005 5.27999 8.32005 5.23999 9.28005C5.18999 10.3201 5.17999 10.6301 5.17999 13.2601C5.17999 15.8901 5.18999 16.2001 5.23999 17.2401C5.27999 18.2001 5.43999 18.7201 5.57999 19.0701C5.75999 19.5301 5.96999 19.8601 6.31999 20.2001C6.66999 20.5401 6.98999 20.7601 7.44999 20.9401C7.79999 21.0701 8.31999 21.2401 9.27999 21.2801C10.32 21.3301 10.63 21.3401 13.27 21.3401C15.9 21.3401 16.22 21.3301 17.26 21.2801C18.22 21.2401 18.74 21.0801 19.09 20.9401C19.55 20.7601 19.88 20.5501 20.22 20.2001C20.57 19.8601 20.78 19.5301 20.96 19.0701C21.1 18.7201 21.26 18.2001 21.3 17.2401C21.35 16.2001 21.36 15.8901 21.36 13.2601C21.36 10.6301 21.35 10.3201 21.3 9.28005C21.25 8.32005 21.09 7.80005 20.96 7.45005ZM13.27 18.3201C10.47 18.3201 8.19999 16.0501 8.19999 13.2601C8.19999 10.4601 10.47 8.20005 13.27 8.20005C16.07 8.20005 18.33 10.4701 18.33 13.2601C18.33 16.0601 16.07 18.3201 13.27 18.3201ZM18.53 9.18005C17.88 9.18005 17.35 8.65005 17.35 8.00005C17.35 7.35005 17.88 6.82005 18.53 6.82005C19.18 6.82005 19.71 7.35005 19.71 8.00005C19.72 8.65005 19.19 9.18005 18.53 9.18005Z" fill="white"/>
<path d="M26.5 5.75C26.42 4.68 26.23 3.97 25.86 3.21C25.55 2.59 25.22 2.13 24.72 1.65C23.84 0.81 22.77 0.3 21.49 0.12C20.88 0.03 20.76 0.01 17.59 0H13.27C7.73 0 6.11 0.01 5.8 0.03C4.66 0.13 3.95 0.31 3.18 0.69C2.59 0.98 2.12 1.33 1.66 1.8C0.82 2.68 0.31 3.75 0.12 5.03C0.03 5.65 0.01 5.78 0 8.95C0 10.01 0 11.4 0 13.26C0 18.79 0.01 20.41 0.03 20.73C0.12 21.84 0.3 22.53 0.66 23.29C1.36 24.75 2.7 25.84 4.28 26.25C4.83 26.39 5.43 26.47 6.21 26.51C6.54 26.52 9.89 26.53 13.24 26.53C16.59 26.53 19.94 26.53 20.26 26.51C21.16 26.47 21.68 26.4 22.26 26.25C23.85 25.84 25.17 24.76 25.88 23.28C26.24 22.54 26.42 21.81 26.51 20.77C26.53 20.54 26.54 16.9 26.54 13.26C26.53 9.62 26.52 5.98 26.5 5.75ZM23.07 17.33C23.02 18.38 22.85 19.1 22.61 19.72C22.36 20.37 22.02 20.92 21.47 21.47C20.92 22.02 20.37 22.36 19.72 22.61C19.09 22.85 18.37 23.02 17.32 23.07C16.27 23.12 15.93 23.13 13.25 23.13C10.57 23.13 10.24 23.12 9.18 23.07C8.13 23.02 7.41 22.86 6.79 22.61C6.14 22.36 5.59 22.02 5.04 21.47C4.49 20.92 4.15 20.37 3.9 19.72C3.66 19.09 3.49 18.38 3.44 17.33C3.39 16.28 3.38 15.94 3.38 13.27C3.38 10.59 3.39 10.26 3.44 9.21C3.49 8.16 3.65 7.44 3.9 6.82C4.15 6.17 4.49 5.62 5.04 5.07C5.59 4.52 6.14 4.19 6.79 3.93C7.44 3.68 8.15 3.51 9.2 3.47C10.25 3.42 10.59 3.41 13.27 3.41C15.95 3.41 16.28 3.42 17.34 3.47C18.39 3.52 19.11 3.68 19.74 3.93C20.39 4.18 20.94 4.52 21.49 5.07C22.04 5.62 22.38 6.17 22.63 6.82C22.87 7.45 23.04 8.16 23.09 9.21C23.14 10.26 23.15 10.6 23.15 13.27C23.13 15.94 23.12 16.27 23.07 17.33Z" fill="white"/>
<path d="M13.27 16.55C15.087 16.55 16.56 15.077 16.56 13.26C16.56 11.443 15.087 9.96997 13.27 9.96997C11.453 9.96997 9.98001 11.443 9.98001 13.26C9.98001 15.077 11.453 16.55 13.27 16.55Z" fill="white"/>
</g>
<defs>
<clipPath id="clip0_1_116">
<rect width="26.53" height="26.53" fill="white"/>
</clipPath>
</defs>
</svg>
