<svg width="252" height="87" viewBox="0 0 252 87" fill="none" xmlns="http://www.w3.org/2000/svg">
<g clip-path="url(#clip0_1_126)">
<path d="M110.73 80.37C112.06 80.37 113.21 81.04 113.7 82.29H112.44C112.1 81.61 111.49 81.29 110.73 81.29C109.46 81.29 108.54 82.19 108.54 83.64C108.54 85.09 109.46 86 110.73 86C111.49 86 112.1 85.68 112.44 85H113.7C113.21 86.25 112.06 86.91 110.73 86.91C108.93 86.91 107.46 85.57 107.46 83.64C107.46 81.73 108.92 80.37 110.73 80.37Z" fill="#EB6D9D"/>
<path d="M125.2 86.92C123.4 86.92 121.93 85.57 121.93 83.64C121.93 81.73 123.39 80.37 125.2 80.37C127.02 80.37 128.47 81.72 128.47 83.64C128.47 85.56 127.02 86.92 125.2 86.92ZM125.2 86.01C126.47 86.01 127.39 85.09 127.39 83.65C127.39 82.21 126.47 81.3 125.2 81.3C123.93 81.3 123.01 82.2 123.01 83.65C123.01 85.1 123.93 86.01 125.2 86.01Z" fill="#EB6D9D"/>
<path d="M138.96 86.92C137.68 86.92 136.7 86.22 136.7 85.09H137.82C137.87 85.61 138.23 86.04 138.96 86.04C139.7 86.04 140.11 85.64 140.11 85.1C140.11 83.56 136.71 84.56 136.71 82.2C136.71 81.08 137.6 80.38 138.91 80.38C140.13 80.38 141 81.02 141.09 82.12H139.93C139.89 81.69 139.52 81.29 138.85 81.27C138.24 81.25 137.77 81.55 137.77 82.16C137.77 83.6 141.16 82.7 141.16 85.04C141.17 86 140.39 86.92 138.96 86.92Z" fill="#EB6D9D"/>
<path d="M149.78 80.46H150.91L153.16 85.47L155.4 80.46H156.52V86.85H155.47V82.47L153.52 86.85H152.79L150.83 82.47V86.85H149.78V80.46Z" fill="#EB6D9D"/>
<path d="M168.79 81.3H166.31V83.18H168.52V84.04H166.31V86H168.79V86.86H165.26V80.46H168.79V81.3Z" fill="#EB6D9D"/>
<path d="M177.1 80.46H181.56V81.32H179.86V86.86H178.81V81.32H177.1V80.46Z" fill="#EB6D9D"/>
<path d="M189.98 80.46H191.03V86.85H189.98V80.46Z" fill="#EB6D9D"/>
<path d="M202.69 80.37C204.02 80.37 205.17 81.04 205.66 82.29H204.4C204.06 81.61 203.45 81.29 202.69 81.29C201.42 81.29 200.5 82.19 200.5 83.64C200.5 85.09 201.42 86 202.69 86C203.45 86 204.06 85.68 204.4 85H205.66C205.17 86.25 204.02 86.91 202.69 86.91C200.89 86.91 199.42 85.57 199.42 83.64C199.43 81.73 200.89 80.37 202.69 80.37Z" fill="#EB6D9D"/>
<path d="M216.35 86.92C215.07 86.92 214.09 86.22 214.09 85.09H215.21C215.26 85.61 215.62 86.04 216.35 86.04C217.09 86.04 217.5 85.64 217.5 85.1C217.5 83.56 214.1 84.56 214.1 82.2C214.1 81.08 214.99 80.38 216.3 80.38C217.52 80.38 218.39 81.02 218.48 82.12H217.32C217.28 81.69 216.91 81.29 216.24 81.27C215.63 81.25 215.16 81.55 215.16 82.16C215.16 83.6 218.55 82.7 218.55 85.04C218.56 86 217.78 86.92 216.35 86.92Z" fill="#EB6D9D"/>
<path d="M158.38 5.51004C162.49 5.51004 166.48 6.08004 170.35 7.22004C174.22 8.36004 177.84 10.19 181.23 12.71L181.12 13.62C177.69 11.11 174.04 9.31004 170.15 8.22004C166.26 7.13004 162.34 6.59004 158.38 6.59004C156.51 6.59004 154.52 6.74004 152.41 7.05004C150.3 7.36004 148.16 7.78004 146.01 8.34004C143.86 8.89004 141.73 9.57004 139.64 10.37C137.54 11.17 135.56 12.07 133.7 13.06C131.26 14.51 128.72 16.27 126.07 18.35C123.42 20.43 120.77 22.74 118.1 25.29C115.43 27.84 112.81 30.58 110.24 33.49C107.67 36.4 105.28 39.4 103.07 42.49C103.15 43.33 103.18 44.2 103.18 45.12C103.18 46.03 103.18 46.93 103.18 47.8C103.18 48.94 103.15 50.1 103.09 51.26C103.03 52.42 102.97 53.61 102.89 54.83C102.58 58.49 102.07 61.93 101.35 65.17C100.63 68.41 99.75 71.2801 98.72 73.8C98.19 75.09 97.54 76.44 96.78 77.83C96.02 79.22 95.11 80.49 94.07 81.63C93.02 82.77 91.84 83.71 90.53 84.43C89.22 85.15 87.74 85.52 86.1 85.52C84.27 85.52 82.97 84.99 82.19 83.92C81.41 82.85 81.02 81.44 81.02 79.69C81.02 76.9501 81.57 73.93 82.68 70.63C83.78 67.34 85.29 63.94 87.19 60.46C89.09 56.97 91.29 53.46 93.79 49.92C96.28 46.38 98.94 42.95 101.76 39.64C101.61 38.54 101.45 37.47 101.3 36.44C101.15 35.41 100.96 34.4 100.73 33.41C97.99 35.85 95.35 38.36 92.82 40.95C90.29 43.54 87.86 46.17 85.53 48.84C83.02 51.74 80.5 54.59 77.99 57.41C75.48 60.23 72.89 62.9001 70.22 65.41C67.55 67.9201 64.77 70.25 61.88 72.38C58.98 74.51 55.9 76.36 52.62 77.92C49.34 79.48 45.83 80.7001 42.08 81.58C38.33 82.46 34.26 82.89 29.88 82.89C25.92 82.89 22.13 82.42 18.51 81.49C14.89 80.56 11.71 79.06 8.97 77C6.23 74.94 4.05 72.29 2.43 69.03C0.81 65.76 0 61.79 0 57.11C0 53.19 0.65 49.36 1.94 45.63C3.23 41.9 5.03 38.45 7.31 35.29C9.6 32.13 12.33 29.31 15.51 26.83C18.69 24.35 22.17 22.41 25.94 21C28.34 20.12 30.63 19.5 32.8 19.11C34.97 18.73 37.24 18.54 39.6 18.54C40.02 18.54 40.42 18.54 40.8 18.54C41.18 18.54 41.6 18.56 42.06 18.6C42.21 18.3 42.39 17.91 42.6 17.46C42.81 17 43.07 16.51 43.37 15.97C44.59 13.88 46.06 12.03 47.8 10.43C49.53 8.83004 51.46 7.50004 53.57 6.43004C55.68 5.36004 57.95 4.55004 60.37 4.00004C62.79 3.45004 65.29 3.17004 67.88 3.17004C72.87 3.17004 77.53 4.16004 81.85 6.14004C86.17 8.12004 89.97 11.05 93.25 14.94C94.93 16.92 96.41 19.13 97.71 21.57C99 24.01 100.09 26.79 100.97 29.91C106 26.1 111.23 22.59 116.65 19.37C122.08 16.15 127.44 13.44 132.73 11.23C136.65 9.63004 140.78 8.30004 145.1 7.23004C149.42 6.16004 153.85 5.59004 158.38 5.51004ZM70.56 56.42C74.94 52.15 79.6 47.81 84.53 43.39C89.46 38.97 94.63 34.72 100.04 30.65C99.16 27.56 98.08 24.77 96.78 22.28C95.48 19.79 94.02 17.57 92.38 15.62C89.41 12.04 85.87 9.29004 81.75 7.36004C77.64 5.44004 73.2 4.47004 68.44 4.47004C66.19 4.47004 63.98 4.74004 61.81 5.27004C59.64 5.80004 57.57 6.61004 55.61 7.70004C53.65 8.79004 51.83 10.13 50.15 11.73C48.47 13.33 47.04 15.2 45.86 17.33H45.92C45.84 17.56 45.75 17.81 45.63 18.07C45.52 18.34 45.4 18.58 45.29 18.81C47.08 19.04 48.78 19.34 50.4 19.72C52.02 20.1 53.62 20.57 55.2 21.12C56.78 21.67 58.35 22.3 59.91 23.01C61.47 23.72 63.09 24.51 64.77 25.38L64.54 25.89C62.79 25.17 61.1 24.51 59.48 23.92C57.86 23.33 56.25 22.83 54.65 22.43C53.05 22.03 51.41 21.7 49.74 21.43C48.06 21.16 46.31 20.97 44.48 20.86C44.21 21.74 44 22.62 43.85 23.52C43.7 24.42 43.62 25.38 43.62 26.41C43.62 28.24 43.96 30.1 44.65 31.98C45.34 33.87 46.29 35.53 47.51 36.98C48.42 37.97 49.49 38.86 50.71 39.64C51.93 40.42 53.21 41.08 54.57 41.61C55.92 42.14 57.32 42.55 58.77 42.84C60.22 43.13 61.65 43.27 63.06 43.27C64.55 43.27 65.88 43.2 67.06 43.07C68.24 42.94 69.37 42.73 70.46 42.44C71.55 42.15 72.62 41.8 73.69 41.38C74.76 40.96 75.9 40.49 77.12 39.95L77.41 40.46C76.19 41.26 75.03 41.97 73.92 42.57C72.81 43.18 71.68 43.69 70.52 44.11C69.36 44.53 68.11 44.85 66.78 45.08C65.45 45.31 63.92 45.42 62.21 45.42C59.05 45.42 56.01 44.95 53.1 44.02C50.19 43.09 47.55 41.44 45.19 39.08C43.74 37.37 42.59 35.46 41.73 33.37C40.87 31.28 40.44 29.01 40.44 26.57C40.44 25.58 40.51 24.62 40.64 23.68C40.77 22.75 40.97 21.79 41.24 20.79C38.73 20.87 36.35 21.12 34.13 21.56C31.9 22 29.53 22.73 27.02 23.76C23.74 25.09 20.65 26.89 17.74 29.16C14.83 31.43 12.26 34.05 10.06 37.02C7.85 39.99 6.11 43.24 4.83 46.76C3.55 50.28 2.92 53.95 2.92 57.76C2.92 61.64 3.58 65.05 4.89 67.99C6.2 70.92 7.99 73.39 10.26 75.39C12.53 77.39 15.15 78.89 18.14 79.9C21.13 80.91 24.32 81.41 27.71 81.41C30.64 81.41 33.46 81.06 36.17 80.35C38.87 79.64 41.47 78.69 43.97 77.49C46.46 76.29 48.88 74.8801 51.23 73.26C53.57 71.64 55.84 69.91 58.03 68.06C60.22 66.21 62.35 64.29 64.43 62.29C66.5 60.34 68.54 58.37 70.56 56.42ZM102.16 47.8C102.16 47 102.16 46.33 102.16 45.8C102.16 45.27 102.12 44.62 102.05 43.86C99.95 46.83 98.02 49.84 96.25 52.89C94.48 55.94 92.94 58.95 91.65 61.92C90.35 64.89 89.34 67.8 88.59 70.63C87.85 73.47 87.48 76.1401 87.48 78.66C87.48 81.25 88.18 82.54 89.59 82.54C90.54 82.54 91.45 82.21 92.3 81.54C93.16 80.87 93.94 80.05 94.64 79.08C95.34 78.11 95.95 77.11 96.47 76.08C96.98 75.05 97.39 74.16 97.7 73.39C98.73 70.84 99.59 67.98 100.3 64.82C101 61.66 101.51 58.31 101.81 54.76C101.92 53.54 102 52.35 102.04 51.19C102.08 50.03 102.12 48.9 102.16 47.8ZM101.7 32.6C101.89 33.59 102.07 34.57 102.24 35.54C102.41 36.51 102.57 37.51 102.73 38.54C105.09 35.87 107.52 33.28 110.01 30.77C112.5 28.26 115 25.9 117.49 23.71C119.98 21.52 122.45 19.52 124.89 17.71C127.33 15.9 129.65 14.33 131.86 13C126.41 15.32 121.18 18.16 116.15 21.51C111.13 24.87 106.31 28.56 101.7 32.6Z" fill="#EB6D9D"/>
<path d="M135.76 36.88C134.73 37.45 133.66 38.05 132.56 38.68C131.46 39.31 130.35 39.93 129.25 40.54C128.15 41.15 127.08 41.74 126.05 42.31C125.02 42.88 124.09 43.41 123.25 43.91C123.17 44.14 122.89 44.63 122.39 45.4C121.89 46.16 121.3 47.1 120.62 48.2C119.93 49.31 119.17 50.52 118.33 51.86C117.49 53.19 116.64 54.57 115.79 55.97C114.93 57.38 114.1 58.8 113.3 60.23C112.5 61.66 111.79 63 111.16 64.26C110.53 65.52 110.03 66.64 109.65 67.63C109.27 68.62 109.08 69.4 109.08 69.97C109.08 71 109.52 71.51 110.39 71.51C111.61 71.51 112.82 71.21 114.02 70.6C115.22 69.99 116.22 69.38 117.02 68.77C117.78 68.2 118.62 67.5 119.53 66.68C120.44 65.86 121.4 64.96 122.39 63.97V63.34C122.39 61.32 122.82 59.35 123.68 57.43C124.54 55.51 125.48 53.71 126.51 52.03C127.42 50.58 128.43 49.2 129.54 47.89C130.64 46.58 131.75 45.48 132.85 44.6C133.15 44.33 133.47 44.11 133.79 43.94C134.11 43.77 134.39 43.68 134.62 43.68C135.27 43.68 135.59 44.1 135.59 44.94C135.59 45.66 135.46 46.44 135.19 47.25C134.92 48.07 134.59 48.9 134.19 49.74C133.79 50.58 133.35 51.4 132.88 52.2C132.4 53 131.94 53.74 131.48 54.43C130.34 56.14 129.07 57.85 127.68 59.54C126.29 61.24 124.91 62.81 123.54 64.25C123.62 64.44 123.69 64.62 123.77 64.79C123.85 64.96 123.92 65.08 124 65.16C124.42 65.69 125.14 65.96 126.17 65.96C127.27 65.96 128.43 65.67 129.63 65.1C130.83 64.53 131.96 63.81 133.03 62.93C133.98 62.17 134.87 61.36 135.69 60.5C136.51 59.64 137.2 58.83 137.78 58.07L138.52 58.93C137.91 59.73 137.2 60.56 136.38 61.42C135.56 62.28 134.66 63.09 133.67 63.85C132.53 64.73 131.3 65.48 129.98 66.11C128.67 66.74 127.42 67.05 126.24 67.05C125.71 67.05 125.16 66.96 124.61 66.76C124.06 66.57 123.57 66.25 123.15 65.79L122.75 65.16C121.91 65.96 121.04 66.75 120.12 67.53C119.21 68.31 118.29 69.08 117.38 69.84C116.58 70.45 115.53 71.07 114.24 71.7C112.94 72.33 111.59 72.64 110.18 72.64C108.77 72.64 107.68 72.26 106.89 71.5C106.11 70.74 105.72 69.63 105.72 68.19C105.72 67.16 105.94 65.96 106.38 64.59C106.82 63.22 107.41 61.71 108.15 60.08C108.89 58.45 109.78 56.71 110.81 54.88C111.84 53.05 112.94 51.19 114.12 49.28C113.13 50.31 112.2 51.37 111.32 52.48C110.44 53.59 109.53 54.73 108.58 55.91L107.44 57.34L106.87 58.08V58.02C106.72 58.21 106.52 58.46 106.27 58.76C106.02 59.07 105.82 59.31 105.67 59.5L104.93 58.64L107.44 55.5C109.04 53.56 110.6 51.68 112.13 49.87C113.65 48.06 115.02 46.66 116.24 45.67C118.94 41.63 121.67 37.99 124.41 34.76C127.15 31.52 129.84 28.76 132.47 26.48C135.1 24.19 137.62 22.44 140.04 21.22C142.46 20 144.7 19.39 146.75 19.39C147.32 19.39 147.94 19.44 148.61 19.53C149.28 19.63 149.9 19.8 150.47 20.04C151.04 20.29 151.52 20.65 151.9 21.13C152.28 21.61 152.47 22.24 152.47 23.04C152.47 24.11 152.09 25.15 151.33 26.18C150.57 27.21 149.63 28.18 148.53 29.09C147.42 30 146.26 30.84 145.04 31.6C143.82 32.36 142.77 32.99 141.9 33.49C140.99 34.02 139.99 34.59 138.93 35.18C137.83 35.79 136.79 36.35 135.76 36.88ZM141.41 32.65C142.1 32.27 143 31.75 144.12 31.08C145.24 30.41 146.35 29.64 147.43 28.77C148.52 27.89 149.45 26.96 150.23 25.97C151.01 24.98 151.4 23.99 151.4 23C151.4 22.16 151.01 21.55 150.23 21.17C149.45 20.79 148.66 20.6 147.86 20.6C146.03 20.6 144.07 21.28 141.97 22.63C139.87 23.98 137.78 25.71 135.68 27.8C133.58 29.9 131.57 32.21 129.62 34.74C127.68 37.27 125.94 39.74 124.42 42.14C125.68 41.42 127.02 40.65 128.45 39.85C129.88 39.05 131.33 38.24 132.79 37.42C134.26 36.6 135.71 35.79 137.16 34.99C138.63 34.2 140.04 33.42 141.41 32.65Z" fill="#EB6D9D"/>
<path d="M164.1 63.7901C164.86 62.9101 165.65 61.9801 166.47 60.9901C167.29 60.0001 168.08 59.0301 168.84 58.0801L169.58 58.9401C168.82 59.8901 168.05 60.8701 167.27 61.8801C166.49 62.8901 165.72 63.7801 164.96 64.5401C163.97 65.6501 162.97 66.6801 161.96 67.6501C160.95 68.6201 159.95 69.4701 158.96 70.1901C157.97 70.9101 157 71.4801 156.05 71.9001C155.1 72.3201 154.2 72.5301 153.37 72.5301C151.86 72.5301 150.83 72.2101 150.27 71.5601C149.71 70.9101 149.43 70.0701 149.43 69.0501C149.43 68.2501 149.6 67.3401 149.93 66.3401C150.27 65.3301 150.68 64.3101 151.16 63.2801C150.06 64.5001 148.97 65.6501 147.91 66.7401C146.85 67.8301 145.78 68.7901 144.72 69.6301C143.54 70.5401 142.45 71.2801 141.44 71.8301C140.43 72.3801 139.49 72.6601 138.62 72.6601C137.29 72.6601 136.34 72.1901 135.77 71.2601C135.2 70.3301 134.91 69.1901 134.91 67.8601C134.91 66.9101 135.06 65.8301 135.37 64.6301C135.67 63.4301 136.07 62.2101 136.57 60.9701C137.06 59.7301 137.62 58.5001 138.25 57.2801C138.88 56.0601 139.53 54.9401 140.22 53.9101C141.28 52.5001 142.47 51.1601 143.78 49.8801C145.09 48.6001 146.45 47.4801 147.85 46.5101C149.25 45.5401 150.7 44.7701 152.18 44.2001C153.66 43.6301 155.11 43.3401 156.52 43.3401C157.66 43.3401 158.55 43.6201 159.18 44.1701C159.81 44.7201 160.12 45.5501 160.12 46.6601C160.12 47.1901 160.06 47.8001 159.95 48.4901L163.38 43.4601H170.69L164.12 52.1401C161.26 55.9101 158.5 59.7401 155.83 63.6201C155.53 64.0401 155.18 64.5401 154.8 65.1301C154.42 65.7201 154.06 66.3301 153.71 66.9601C153.37 67.5901 153.07 68.2001 152.83 68.7901C152.58 69.3801 152.46 69.9001 152.46 70.3601C152.46 71.0101 152.86 71.3301 153.66 71.3301C154.38 71.3301 155.16 71.1401 155.97 70.7601C156.79 70.3801 157.65 69.8501 158.54 69.1601C159.43 68.4701 160.35 67.6701 161.28 66.7601C162.2 65.8501 163.14 64.8601 164.1 63.7901ZM144.1 68.7601C145.32 67.7701 146.58 66.6101 147.87 65.2701C149.16 63.9401 150.44 62.4901 151.7 60.9301C152.77 59.7101 153.76 58.4001 154.67 56.9901C155.58 55.5801 156.4 54.1901 157.13 52.8201C157.59 51.9401 158.02 50.9701 158.44 49.9101C158.86 48.8401 159.07 47.7601 159.07 46.6501C159.07 46.1901 158.96 45.7401 158.73 45.2801C158.5 44.8201 158.1 44.5901 157.53 44.5901C156.69 44.5901 155.71 45.0301 154.59 45.9001C153.47 46.7801 152.31 47.8601 151.13 49.1601C149.95 50.4501 148.79 51.8501 147.64 53.3301C146.5 54.8201 145.49 56.1701 144.61 57.3901C143.62 58.7601 142.7 60.1201 141.87 61.4701C141.03 62.8201 140.31 64.0901 139.7 65.2701C139.09 66.4501 138.6 67.5101 138.24 68.4401C137.88 69.3701 137.7 70.1301 137.7 70.7001C137.7 71.2301 138 71.5001 138.61 71.5001C139.3 71.5001 140.1 71.2601 141.04 70.7901C141.97 70.3201 142.99 69.6401 144.1 68.7601Z" fill="#EB6D9D"/>
<path d="M205.81 58.9401L204.32 60.8201C203.67 61.6601 203.01 62.4801 202.32 63.2801C201.63 64.0801 200.97 64.8401 200.32 65.5701C198.41 67.5901 196.57 69.2501 194.78 70.5701C192.99 71.8801 191.28 72.5401 189.64 72.5401C187.57 72.5401 186.12 72.2001 185.31 71.5101C184.5 70.8201 184.1 69.8901 184.1 68.7101C184.1 67.9501 184.29 67.1101 184.67 66.2001C185.05 65.2901 185.55 64.3101 186.16 63.2901C186.77 62.2701 187.47 61.2001 188.27 60.0901C189.07 58.9901 189.91 57.8801 190.78 56.7801L193.35 53.5201C194.11 52.5701 194.84 51.6601 195.52 50.8101C196.21 49.9501 196.81 49.1501 197.32 48.4101C197.83 47.6701 198.24 47.0101 198.55 46.4401C198.85 45.8701 199.01 45.4101 199.01 45.0701C199.01 44.7701 198.8 44.6101 198.38 44.6101C197.66 44.6101 196.85 44.8101 195.95 45.2101C195.05 45.6101 194.16 46.1101 193.27 46.7001C192.37 47.2901 191.52 47.9101 190.7 48.5601C189.88 49.2101 189.19 49.7801 188.61 50.2701C187.7 51.1101 186.76 52.0001 185.81 52.9501C184.86 53.9001 183.95 54.8501 183.1 55.7801C182.24 56.7101 181.43 57.6101 180.67 58.4601C179.91 59.3201 179.26 60.0501 178.73 60.6601L178.39 61.0601V61.0001C177.63 62.2201 176.88 63.4001 176.13 64.5401C175.39 65.6801 174.68 66.7601 174.02 67.7701C173.35 68.7801 172.74 69.6901 172.19 70.5101C171.64 71.3301 171.17 72.0101 170.79 72.5401H163.59L164.16 71.6201L167.02 67.6801L174.28 57.7401C175.08 56.6001 175.88 55.4401 176.68 54.2501C177.48 53.0701 178.24 51.9501 178.97 50.8801C179.69 49.8101 180.33 48.8501 180.88 48.0001C181.43 47.1401 181.84 46.4901 182.11 46.0301C182.19 45.8801 182.27 45.6901 182.37 45.4601C182.46 45.2301 182.51 45.0401 182.51 44.8901C182.51 44.7001 182.38 44.6001 182.11 44.6001C181.54 44.6001 180.67 45.2401 179.51 46.5101C178.35 47.7901 177.01 49.4101 175.48 51.4001L169.2 59.5101L168.46 58.6501C168.92 58.0801 169.39 57.4701 169.89 56.8201C170.38 56.1701 170.84 55.5601 171.26 54.9901L174.69 50.6501C175.45 49.6601 176.19 48.7301 176.89 47.8501C177.59 46.9701 178.27 46.2101 178.92 45.5601C179.57 44.9101 180.19 44.4001 180.78 44.0201C181.37 43.6401 181.93 43.4501 182.47 43.4501C183.38 43.4501 184.1 43.7301 184.61 44.2801C185.12 44.8301 185.38 45.5901 185.38 46.5401C185.38 47.3801 185.02 48.6301 184.3 50.2801C183.58 51.9401 182.66 53.7801 181.56 55.7901C182.47 54.8001 183.5 53.7201 184.65 52.5601C185.79 51.4001 186.94 50.3201 188.08 49.3301C188.69 48.7601 189.42 48.1401 190.28 47.4701C191.14 46.8001 192.04 46.1701 192.99 45.5601C193.94 44.9501 194.91 44.4501 195.9 44.0501C196.89 43.6501 197.84 43.4501 198.76 43.4501C199.64 43.4501 200.39 43.7201 201.02 44.2501C201.65 44.7801 201.96 45.5501 201.96 46.5401C201.96 47.3001 201.79 48.1801 201.44 49.1701C201.1 50.1601 200.64 51.2101 200.06 52.3101C199.49 53.4201 198.83 54.5801 198.08 55.8001C197.33 57.0201 196.56 58.2201 195.76 59.4001C195.49 59.7801 195.23 60.1501 194.99 60.5101C194.74 60.8701 194.5 61.2401 194.27 61.6201C193.62 62.6101 192.99 63.5701 192.38 64.5001C191.77 65.4301 191.23 66.2901 190.77 67.0701C190.31 67.8501 189.95 68.5601 189.68 69.1801C189.41 69.8101 189.28 70.3101 189.28 70.6901C189.28 71.1101 189.49 71.3201 189.91 71.3201C191.24 71.3201 192.74 70.7101 194.4 69.4901C196.06 68.2701 197.76 66.6901 199.51 64.7501C200.39 63.7601 201.32 62.6801 202.31 61.5201C203.3 60.3601 204.23 59.2101 205.11 58.0601L205.81 58.9401Z" fill="#EB6D9D"/>
<path d="M219.57 66.8201C218.96 66.8201 218.46 66.6001 218.06 66.1601C217.66 65.7201 217.38 65.2401 217.23 64.7001C216.39 65.6101 215.53 66.4801 214.66 67.3001C213.78 68.1201 212.91 68.8901 212.03 69.6101C210.89 70.5201 209.77 71.2601 208.69 71.8101C207.6 72.3601 206.68 72.6401 205.92 72.6401C204.59 72.6401 203.63 72.1801 203.06 71.2701C202.49 70.3601 202.2 69.3301 202.2 68.1901C202.2 66.0201 202.68 63.6701 203.63 61.1301C204.58 58.6001 205.88 56.1901 207.51 53.9001C208.58 52.4101 209.76 51.0301 211.05 49.7601C212.34 48.4801 213.71 47.3701 215.13 46.4201C216.56 45.4701 218.02 44.7201 219.5 44.1601C220.99 43.6101 222.45 43.3301 223.9 43.3301C224.97 43.3301 225.81 43.5901 226.44 44.1001C227.07 44.6101 227.38 45.4801 227.38 46.7001C227.38 47.7301 227.17 48.8001 226.75 49.9001C226.33 51.0101 225.89 52.0501 225.44 53.0401C224.87 54.1501 224.28 55.1901 223.67 56.1801C223.06 57.1701 222.45 58.1001 221.84 58.9801C220.7 60.5401 219.46 62.1201 218.13 63.7201C218.17 64.2201 218.3 64.6701 218.53 65.0901C218.76 65.5101 219.1 65.7201 219.56 65.7201C220.21 65.7201 220.96 65.4301 221.82 64.8301C222.68 64.2401 223.52 63.5401 224.36 62.7201C225.2 61.9001 225.99 61.0501 226.73 60.1801C227.47 59.3001 228.07 58.6001 228.53 58.0701L229.27 58.9301C228.85 59.5001 228.26 60.2201 227.5 61.1001C226.74 61.9801 225.9 62.8401 224.99 63.7001C224.08 64.5601 223.14 65.2901 222.19 65.9001C221.25 66.5201 220.37 66.8201 219.57 66.8201ZM211.4 68.7601C212.24 68.0401 213.15 67.2101 214.14 66.2701C215.13 65.3401 216.1 64.3401 217.05 63.2701C217.05 62.1301 217.25 60.9801 217.65 59.8101C218.05 58.6501 218.59 57.5301 219.28 56.4701C219.97 55.4801 220.78 54.5801 221.74 53.7801C222.69 52.9801 223.68 52.5001 224.71 52.3501C225.17 51.4001 225.56 50.4601 225.88 49.5201C226.2 48.5901 226.37 47.6601 226.37 46.7501C226.37 46.2601 226.26 45.7701 226.03 45.2901C225.8 44.8101 225.4 44.5801 224.83 44.5801C224.03 44.5801 223.12 44.9701 222.09 45.7501C221.06 46.5301 219.98 47.5101 218.86 48.6901C217.74 49.8701 216.62 51.1801 215.52 52.6001C214.42 54.0301 213.41 55.3701 212.49 56.6301C211.42 58.0801 210.43 59.5101 209.52 60.9201C208.61 62.3301 207.81 63.6601 207.15 64.9201C206.48 66.1801 205.96 67.3101 205.58 68.3201C205.2 69.3301 205.01 70.1601 205.01 70.8101C205.01 71.0801 205.11 71.2601 205.3 71.3501C205.49 71.4501 205.7 71.4901 205.93 71.4901C206.62 71.4901 207.44 71.2301 208.42 70.7201C209.38 70.2201 210.38 69.5601 211.4 68.7601Z" fill="#EB6D9D"/>
<path d="M229.17 25.56C222.27 25.81 215.95 29.49 209 29.87C196.83 30.52 184.31 27.17 176.73 17.05C174.67 14.3 173.07 11.21 171.95 7.96003C179.95 12.74 191.23 16.29 206.65 14.98C206.65 14.98 220.67 12.68 232.39 19.09C232.39 19.09 213.8 4.36003 187 9.08003C181.09 10.12 176.09 9.45003 171.88 7.78003C171.87 7.74003 171.85 7.70003 171.84 7.66003C173.55 7.90003 175.22 7.93003 176.72 7.87003C177.7 7.89003 179.01 7.76003 180.78 7.43003C181.98 7.22003 182.72 7.02003 182.72 7.02003C186.48 6.16003 191.86 4.59003 199.6 1.98003C234.56 -9.80997 251.31 34.89 251.31 34.89C245.74 28.33 237.68 25.25 229.17 25.56Z" fill="#EB6D9D"/>
</g>
<defs>
<clipPath id="clip0_1_126">
<rect width="251.32" height="86.92" fill="white"/>
</clipPath>
</defs>
</svg>
