<svg width="79" height="79" viewBox="0 0 79 79" fill="none" xmlns="http://www.w3.org/2000/svg">
<g clip-path="url(#clip0_1_52)">
<path d="M39.5 78.5C61.0391 78.5 78.5 61.0391 78.5 39.5C78.5 17.9609 61.0391 0.5 39.5 0.5C17.9609 0.5 0.5 17.9609 0.5 39.5C0.5 61.0391 17.9609 78.5 39.5 78.5Z" fill="white"/>
<path d="M39.5 79C17.72 79 0 61.28 0 39.5C0 17.72 17.72 0 39.5 0C61.28 0 79 17.72 79 39.5C79 61.28 61.28 79 39.5 79ZM39.5 1C18.27 1 1 18.27 1 39.5C1 60.73 18.27 78 39.5 78C60.73 78 78 60.73 78 39.5C78 18.27 60.73 1 39.5 1Z" fill="#DF001C"/>
<path d="M23.06 43.93C23.06 35.73 27.49 28.93 34.87 25.16L37.08 29.18C31.67 32.3 28.55 37.05 28.55 43.36L30.11 49.76L25.6 44.27C26.99 42.71 28.88 41.56 30.77 41.56C34.13 41.56 36.51 44.02 36.51 47.54C36.51 51.23 34.05 53.85 30.44 53.85C26.18 53.85 23.06 50.16 23.06 43.93ZM41.92 43.93C41.92 35.73 46.35 28.93 53.73 25.16L55.94 29.18C50.53 32.3 47.41 37.05 47.41 43.36L48.97 49.76L44.46 44.27C45.85 42.71 47.74 41.56 49.63 41.56C52.99 41.56 55.37 44.02 55.37 47.54C55.37 51.23 52.91 53.85 49.3 53.85C45.03 53.85 41.92 50.16 41.92 43.93Z" fill="black"/>
</g>
<defs>
<clipPath id="clip0_1_52">
<rect width="79" height="79" fill="white"/>
</clipPath>
</defs>
</svg>
