<svg width="39" height="126" viewBox="0 0 39 126" fill="none" xmlns="http://www.w3.org/2000/svg">
<g clip-path="url(#clip0_1_171)">
<path d="M31.51 101.02V100.98C31.01 101 30.51 101.01 30.01 101.01C30.5 101.02 31 101.03 31.51 101.02Z" fill="black"/>
<path d="M28.5 101.02C29 101.02 29.5 101.02 30 101.02C29.5 101.01 29 101 28.5 100.99V101.02Z" fill="black"/>
<path d="M37.97 64.64C37.94 62.42 37.78 60.21 37.59 58C37.22 53.72 35.14 50.43 31.67 47.95C30.55 47.15 29.52 46.22 28.47 45.32C28.3 45.18 28.25 44.89 28.06 44.49C30.83 44.29 30.52 42.35 30.45 40.52C30.43 39.93 30.43 39.35 30.45 38.76C30.49 37.84 30.25 37.19 29.3 36.77C28.91 36.6 28.54 35.89 28.53 35.41C28.38 31.27 28.27 27.12 28.26 22.98C28.26 21.71 27.94 21.11 26.56 20.96C24.21 20.7 24.28 20.6 24.2 18.21C24.06 14.07 23.9 9.94 23.64 5.81C23.51 3.64 22.3 1.78 20.6 0.7C20.13 0.4 19.63 0.17 19.1 0C18.57 0.17 18.06 0.41 17.6 0.7C15.9 1.78 14.69 3.64 14.56 5.81C14.3 9.94 14.14 14.08 14 18.21C13.92 20.6 13.99 20.7 11.64 20.96C10.26 21.11 9.95 21.7 9.94 22.98C9.92 27.13 9.81 31.27 9.67 35.41C9.65 35.89 9.29 36.6 8.9 36.77C7.95 37.19 7.7 37.84 7.75 38.76C7.78 39.35 7.77 39.93 7.75 40.52C7.68 42.34 7.38 44.28 10.14 44.49C9.95 44.89 9.9 45.18 9.73 45.32C8.68 46.22 7.65 47.15 6.53 47.95C3.07 50.44 0.99 53.72 0.62 58C0.43 60.21 0.27 62.43 0.24 64.64C0.13 73.52 0 82.4 0 91.28C0 100.66 0.15 110.04 0.21 119.42C0.22 120.87 0.78 122 2.09 122.56C3.43 123.14 4.82 123.66 6.24 123.95C10.02 124.72 13.81 125.13 17.6 125.25C18.1 125.27 18.6 125.28 19.1 125.28C19.6 125.27 20.1 125.26 20.6 125.25C24.39 125.13 28.18 124.71 31.96 123.95C33.38 123.66 34.77 123.14 36.11 122.56C37.42 121.99 37.98 120.86 37.99 119.42C38.05 110.04 38.2 100.66 38.2 91.28C38.21 82.4 38.09 73.52 37.97 64.64ZM36.35 111.85H1.85V65.21H36.35V111.85Z" fill="black"/>
</g>
<defs>
<clipPath id="clip0_1_171">
<rect width="38.21" height="125.3" fill="white"/>
</clipPath>
</defs>
</svg>
