<svg width="23" height="23" viewBox="0 0 23 23" fill="none" xmlns="http://www.w3.org/2000/svg">
<g clip-path="url(#clip0_1_19)">
<path d="M11.4701 11.48C14.5297 11.48 17.0101 8.99968 17.0101 5.94002C17.0101 2.88037 14.5297 0.400024 11.4701 0.400024C8.4104 0.400024 5.93005 2.88037 5.93005 5.94002C5.93005 8.99968 8.4104 11.48 11.4701 11.48Z" fill="white"/>
<path d="M11.47 11.87C8.20003 11.87 5.53003 9.21 5.53003 5.93C5.53003 2.65 8.20003 0 11.47 0C14.74 0 17.41 2.66 17.41 5.94C17.41 9.22 14.75 11.87 11.47 11.87ZM11.47 0.79C8.63003 0.79 6.33003 3.1 6.33003 5.93C6.33003 8.76 8.64003 11.07 11.47 11.07C14.3 11.07 16.61 8.76 16.61 5.93C16.61 3.1 14.31 0.79 11.47 0.79Z" fill="black"/>
<path d="M0.400024 22.55C0.400024 16.43 5.36002 11.47 11.48 11.47C17.6 11.47 22.56 16.43 22.56 22.55" fill="white"/>
<path d="M22.95 22.55H22.16C22.16 16.66 17.37 11.87 11.48 11.87C5.59 11.87 0.79 16.66 0.79 22.55H0C0 16.22 5.15 11.08 11.47 11.08C17.79 11.08 22.95 16.23 22.95 22.55Z" fill="black"/>
</g>
<defs>
<clipPath id="clip0_1_19">
<rect width="22.95" height="22.55" fill="white"/>
</clipPath>
</defs>
</svg>
